<mxfile host="Electron" modified="2023-04-18T22:34:01.370Z" agent="Mozilla/5.0 (Windows NT 10.0; Win64; x64) AppleWebKit/537.36 (KHTML, like Gecko) draw.io/21.1.2 Chrome/106.0.5249.199 Electron/21.4.3 Safari/537.36" etag="OV99GR4RVogcH_l59GXZ" version="21.1.2" type="device">
  <diagram id="C5RBs43oDa-KdzZeNtuy" name="Page-1">
    <mxGraphModel dx="72" dy="1695" grid="1" gridSize="10" guides="1" tooltips="1" connect="1" arrows="1" fold="1" page="0" pageScale="1" pageWidth="827" pageHeight="1169" background="none" math="0" shadow="0">
      <root>
        <mxCell id="WIyWlLk6GJQsqaUBKTNV-0" />
        <mxCell id="WIyWlLk6GJQsqaUBKTNV-1" parent="WIyWlLk6GJQsqaUBKTNV-0" />
        <mxCell id="PX8rfjHNK_CmSuPZf5Gd-1" style="edgeStyle=none;curved=1;rounded=0;orthogonalLoop=1;jettySize=auto;html=1;fontSize=12;startSize=8;endSize=8;" parent="WIyWlLk6GJQsqaUBKTNV-1" source="PX8rfjHNK_CmSuPZf5Gd-0" edge="1">
          <mxGeometry relative="1" as="geometry">
            <mxPoint x="585" y="-70" as="targetPoint" />
          </mxGeometry>
        </mxCell>
        <mxCell id="PX8rfjHNK_CmSuPZf5Gd-0" value="&lt;p style=&quot;margin:0px;margin-top:4px;text-align:center;text-decoration:underline;&quot;&gt;Produto&amp;nbsp;— Models&lt;/p&gt;&lt;p style=&quot;margin:0px;margin-left:8px;&quot;&gt;&lt;br&gt;&lt;/p&gt;&lt;p style=&quot;margin:0px;margin-left:8px;&quot;&gt;Codigo = Integer&lt;br&gt;Nome = String&lt;br&gt;descricao = String&lt;/p&gt;&lt;p style=&quot;margin:0px;margin-left:8px;&quot;&gt;valor = BigDecimal&lt;/p&gt;&lt;p style=&quot;margin:0px;margin-left:8px;&quot;&gt;valorImpostos = Impostos&lt;/p&gt;&lt;p style=&quot;margin:0px;margin-left:8px;&quot;&gt;dataValidade = LocalDate&lt;/p&gt;" style="verticalAlign=top;align=left;overflow=fill;fontSize=12;fontFamily=Helvetica;html=1;" parent="WIyWlLk6GJQsqaUBKTNV-1" vertex="1">
          <mxGeometry x="500" y="80" width="170" height="140" as="geometry" />
        </mxCell>
        <mxCell id="PX8rfjHNK_CmSuPZf5Gd-13" value="&lt;p style=&quot;margin:0px;margin-top:4px;text-align:center;text-decoration:underline;&quot;&gt;&lt;b&gt;Produto&lt;/b&gt;&lt;span style=&quot;background-color: initial;&quot;&gt;—&lt;/span&gt;&lt;b style=&quot;background-color: initial;&quot;&gt;Controller&lt;/b&gt;&lt;/p&gt;&lt;p style=&quot;margin:0px;margin-top:4px;text-align:center;text-decoration:underline;&quot;&gt;&lt;b&gt;&lt;br&gt;&lt;/b&gt;&lt;/p&gt;&lt;p style=&quot;margin:0px;margin-left:8px;&quot;&gt;novoProduto = ResponseEntity /cadastrar POST&lt;/p&gt;&lt;p style=&quot;margin:0px;margin-left:8px;&quot;&gt;listarProdutos = ResponseEntity /produtos GET&lt;/p&gt;&lt;p style=&quot;margin:0px;margin-left:8px;&quot;&gt;alterarProduto&lt;span style=&quot;&quot;&gt; &lt;/span&gt;= ResponseEntity /produtos PUT&lt;/p&gt;&lt;p style=&quot;margin:0px;margin-left:8px;&quot;&gt;deletarProduto = ResponseEntity /produtos DEL&lt;/p&gt;&lt;p style=&quot;margin:0px;margin-left:8px;&quot;&gt;associarImposto = ResponseEntity /produtos PUT&amp;nbsp;&lt;/p&gt;" style="verticalAlign=top;align=left;overflow=fill;fontSize=12;fontFamily=Helvetica;html=1;" parent="WIyWlLk6GJQsqaUBKTNV-1" vertex="1">
          <mxGeometry x="440" y="-480" width="285" height="140" as="geometry" />
        </mxCell>
        <mxCell id="9IsD7IYUiVHwia4CWiFH-2" style="edgeStyle=none;curved=1;rounded=0;orthogonalLoop=1;jettySize=auto;html=1;fontSize=12;startSize=8;endSize=8;" edge="1" parent="WIyWlLk6GJQsqaUBKTNV-1" source="9IsD7IYUiVHwia4CWiFH-1">
          <mxGeometry relative="1" as="geometry">
            <mxPoint x="895" y="-60" as="targetPoint" />
          </mxGeometry>
        </mxCell>
        <mxCell id="9IsD7IYUiVHwia4CWiFH-1" value="&lt;p style=&quot;margin:0px;margin-top:4px;text-align:center;text-decoration:underline;&quot;&gt;Impostos — Models&lt;/p&gt;&lt;p style=&quot;margin:0px;margin-left:8px;&quot;&gt;&lt;br&gt;&lt;/p&gt;&lt;p style=&quot;margin:0px;margin-left:8px;&quot;&gt;nome = String&lt;/p&gt;&lt;p style=&quot;margin:0px;margin-left:8px;&quot;&gt;aliquota = Integer&lt;/p&gt;" style="verticalAlign=top;align=left;overflow=fill;fontSize=12;fontFamily=Helvetica;html=1;" vertex="1" parent="WIyWlLk6GJQsqaUBKTNV-1">
          <mxGeometry x="810" y="130" width="170" height="70" as="geometry" />
        </mxCell>
        <mxCell id="9IsD7IYUiVHwia4CWiFH-3" value="&lt;p style=&quot;margin:0px;margin-top:4px;text-align:center;text-decoration:underline;&quot;&gt;&lt;b&gt;ProdutoController&lt;/b&gt;&lt;/p&gt;&lt;p style=&quot;margin:0px;margin-top:4px;text-align:center;text-decoration:underline;&quot;&gt;&lt;b&gt;&lt;br&gt;&lt;/b&gt;&lt;/p&gt;&lt;p style=&quot;margin:0px;margin-left:8px;&quot;&gt;cadastrarImpostos = ResponseEntity /cadastrar POST&lt;/p&gt;&lt;p style=&quot;margin:0px;margin-left:8px;&quot;&gt;listarImpostos = ResponseEntity /produtos GET&lt;/p&gt;&lt;p style=&quot;margin:0px;margin-left:8px;&quot;&gt;alterarImpostos&lt;span style=&quot;white-space: pre;&quot;&gt; &lt;/span&gt;= ResponseEntity /produtos PUT&lt;/p&gt;&lt;p style=&quot;margin:0px;margin-left:8px;&quot;&gt;deletarProduto = ResponseEntity /produtos DEL&lt;/p&gt;" style="verticalAlign=top;align=left;overflow=fill;fontSize=12;fontFamily=Helvetica;html=1;" vertex="1" parent="WIyWlLk6GJQsqaUBKTNV-1">
          <mxGeometry x="760" y="-480" width="300" height="140" as="geometry" />
        </mxCell>
        <mxCell id="9IsD7IYUiVHwia4CWiFH-6" style="edgeStyle=none;curved=1;rounded=0;orthogonalLoop=1;jettySize=auto;html=1;fontSize=12;startSize=8;endSize=8;" edge="1" parent="WIyWlLk6GJQsqaUBKTNV-1" source="9IsD7IYUiVHwia4CWiFH-5">
          <mxGeometry relative="1" as="geometry">
            <mxPoint x="585" y="-330" as="targetPoint" />
          </mxGeometry>
        </mxCell>
        <mxCell id="9IsD7IYUiVHwia4CWiFH-5" value="&lt;p style=&quot;margin:0px;margin-top:4px;text-align:center;text-decoration:underline;&quot;&gt;&lt;b&gt;Produto&amp;nbsp;&lt;/b&gt;&lt;span style=&quot;background-color: initial;&quot;&gt;—&lt;/span&gt;&lt;b style=&quot;background-color: initial;&quot;&gt;&amp;nbsp;Service&lt;/b&gt;&lt;/p&gt;&lt;p style=&quot;margin:0px;margin-top:4px;text-align:center;text-decoration:underline;&quot;&gt;&lt;b&gt;&lt;br&gt;&lt;/b&gt;&lt;/p&gt;&lt;p style=&quot;margin:0px;margin-left:8px;&quot;&gt;remover = void (Integer codigo)&lt;/p&gt;&lt;p style=&quot;margin:0px;margin-left:8px;&quot;&gt;adicionar = void (Produto novoProduto)&lt;/p&gt;&lt;p style=&quot;margin:0px;margin-left:8px;&quot;&gt;listarProduto = list (Integer codigo)&lt;/p&gt;&lt;p style=&quot;margin:0px;margin-left:8px;&quot;&gt;update = void (Integer codigo, Produto produto)&lt;/p&gt;&lt;p style=&quot;margin:0px;margin-left:8px;&quot;&gt;buscaPorCodigo = Produto (Integer codigo)&lt;/p&gt;" style="verticalAlign=top;align=left;overflow=fill;fontSize=12;fontFamily=Helvetica;html=1;" vertex="1" parent="WIyWlLk6GJQsqaUBKTNV-1">
          <mxGeometry x="442.5" y="-230" width="285" height="140" as="geometry" />
        </mxCell>
        <mxCell id="9IsD7IYUiVHwia4CWiFH-8" style="edgeStyle=none;curved=1;rounded=0;orthogonalLoop=1;jettySize=auto;html=1;fontSize=12;startSize=8;endSize=8;" edge="1" parent="WIyWlLk6GJQsqaUBKTNV-1" source="9IsD7IYUiVHwia4CWiFH-7">
          <mxGeometry relative="1" as="geometry">
            <mxPoint x="917.5" y="-330" as="targetPoint" />
          </mxGeometry>
        </mxCell>
        <mxCell id="9IsD7IYUiVHwia4CWiFH-7" value="&lt;p style=&quot;margin:0px;margin-top:4px;text-align:center;text-decoration:underline;&quot;&gt;&lt;span style=&quot;background-color: initial;&quot;&gt;&lt;b&gt;Impostos&amp;nbsp;&lt;/b&gt;—&lt;/span&gt;&lt;b style=&quot;background-color: initial;&quot;&gt;&amp;nbsp;Service&lt;/b&gt;&lt;/p&gt;&lt;p style=&quot;margin:0px;margin-top:4px;text-align:center;text-decoration:underline;&quot;&gt;&lt;b&gt;&lt;br&gt;&lt;/b&gt;&lt;/p&gt;&lt;p style=&quot;margin:0px;margin-left:8px;&quot;&gt;&lt;span style=&quot;background-color: initial;&quot;&gt;listarImpostos = list (Impostos aliquota)&lt;/span&gt;&lt;/p&gt;&lt;p style=&quot;margin:0px;margin-left:8px;&quot;&gt;&lt;span style=&quot;background-color: initial;&quot;&gt;buscarImposto = Impostos (Integer aliquota)&lt;/span&gt;&lt;/p&gt;&lt;p style=&quot;margin:0px;margin-left:8px;&quot;&gt;cadastrarImposto = void (Impostos novoImposto)&lt;/p&gt;&lt;p style=&quot;margin:0px;margin-left:8px;&quot;&gt;update = void (Integer aliquota, Impostos imposto)&lt;/p&gt;&lt;p style=&quot;margin:0px;margin-left:8px;&quot;&gt;removerImposto = void (Integer aliquota)&lt;/p&gt;" style="verticalAlign=top;align=left;overflow=fill;fontSize=12;fontFamily=Helvetica;html=1;" vertex="1" parent="WIyWlLk6GJQsqaUBKTNV-1">
          <mxGeometry x="775" y="-230" width="285" height="140" as="geometry" />
        </mxCell>
      </root>
    </mxGraphModel>
  </diagram>
</mxfile>
